<?xml version="1.0" encoding="UTF-8" standalone="no"?>
<!-- Created with Inkscape (http://www.inkscape.org/) -->

<svg
   width="84.058434mm"
   height="75.455643mm"
   viewBox="0 0 84.058432 75.455642"
   version="1.1"
   id="svg1"
   xml:space="preserve"
   xmlns="http://www.w3.org/2000/svg"
   xmlns:svg="http://www.w3.org/2000/svg"><defs
     id="defs1"><clipPath
       clipPathUnits="userSpaceOnUse"
       id="clipPath3126"><path
         d="m 122.40007,97.200006 h 561.6 V 318.1091 h -561.6 z"
         id="path3126" /></clipPath><clipPath
       clipPathUnits="userSpaceOnUse"
       id="clipPath1"><path
         d="m 5756.272,396.09332 h 317.7013 V 110.90667 H 5756.272 Z"
         id="path1"
         style="stroke-width:0.999999" /></clipPath><clipPath
       clipPathUnits="userSpaceOnUse"
       id="clipPath395"><path
         d="M 23.001877,15.581984 H 695.48996 V 619.24531 H 23.001877 Z"
         id="path395"
         style="stroke-width:2.11673" /></clipPath></defs><path
     d="M 0,0 H 720 V 648 H 0 Z"
     style="fill:#ffffff;fill-opacity:1;fill-rule:nonzero;stroke:none"
     transform="matrix(0.12499622,0,0,-0.12499623,-2.8751477,77.403329)"
     clip-path="url(#clipPath395)"
     id="path3129" /><path
     d="M 12.424389,65.253689 H 82.62227 v -27.6128 H 12.424389 Z"
     style="fill:#ffffff;fill-opacity:1;fill-rule:nonzero;stroke:none;stroke-width:0.124996"
     id="path3613" /><path
     d="m 30.623953,65.253695 v 0.749978"
     style="fill:#000000;fill-opacity:1;fill-rule:nonzero;stroke:#000000;stroke-width:0.124996;stroke-linecap:butt;stroke-linejoin:round;stroke-miterlimit:10;stroke-dasharray:none;stroke-opacity:1"
     id="path3614" /><path
     d="M 30.623953,37.640892 V 36.890915"
     style="fill:#000000;fill-opacity:1;fill-rule:nonzero;stroke:#000000;stroke-width:0.124996;stroke-linecap:butt;stroke-linejoin:round;stroke-miterlimit:10;stroke-dasharray:none;stroke-opacity:1"
     id="path3615" /><path
     d="m 52.289965,65.253695 v 0.749978"
     style="fill:#000000;fill-opacity:1;fill-rule:nonzero;stroke:#000000;stroke-width:0.124996;stroke-linecap:butt;stroke-linejoin:round;stroke-miterlimit:10;stroke-dasharray:none;stroke-opacity:1"
     id="path3617" /><path
     d="M 52.289965,37.640892 V 36.890915"
     style="fill:#000000;fill-opacity:1;fill-rule:nonzero;stroke:#000000;stroke-width:0.124996;stroke-linecap:butt;stroke-linejoin:round;stroke-miterlimit:10;stroke-dasharray:none;stroke-opacity:1"
     id="path3618" /><path
     d="m 73.955977,65.253695 v 0.749978"
     style="fill:#000000;fill-opacity:1;fill-rule:nonzero;stroke:#000000;stroke-width:0.124996;stroke-linecap:butt;stroke-linejoin:round;stroke-miterlimit:10;stroke-dasharray:none;stroke-opacity:1"
     id="path3620" /><path
     d="M 73.955977,37.640892 V 36.890915"
     style="fill:#000000;fill-opacity:1;fill-rule:nonzero;stroke:#000000;stroke-width:0.124996;stroke-linecap:butt;stroke-linejoin:round;stroke-miterlimit:10;stroke-dasharray:none;stroke-opacity:1"
     id="path3621" /><path
     d="m 13.291144,65.253695 v 0.374989"
     style="fill:#000000;fill-opacity:1;fill-rule:nonzero;stroke:#000000;stroke-width:0.124996;stroke-linecap:butt;stroke-linejoin:round;stroke-miterlimit:10;stroke-dasharray:none;stroke-opacity:1"
     id="path3623" /><path
     d="M 13.291144,37.640892 V 37.265903"
     style="fill:#000000;fill-opacity:1;fill-rule:nonzero;stroke:#000000;stroke-width:0.124996;stroke-linecap:butt;stroke-linejoin:round;stroke-miterlimit:10;stroke-dasharray:none;stroke-opacity:1"
     id="path3624" /><path
     d="m 17.624347,65.253695 v 0.374989"
     style="fill:#000000;fill-opacity:1;fill-rule:nonzero;stroke:#000000;stroke-width:0.124996;stroke-linecap:butt;stroke-linejoin:round;stroke-miterlimit:10;stroke-dasharray:none;stroke-opacity:1"
     id="path3625" /><path
     d="M 17.624347,37.640892 V 37.265903"
     style="fill:#000000;fill-opacity:1;fill-rule:nonzero;stroke:#000000;stroke-width:0.124996;stroke-linecap:butt;stroke-linejoin:round;stroke-miterlimit:10;stroke-dasharray:none;stroke-opacity:1"
     id="path3626" /><path
     d="m 21.957549,65.253695 v 0.374989"
     style="fill:#000000;fill-opacity:1;fill-rule:nonzero;stroke:#000000;stroke-width:0.124996;stroke-linecap:butt;stroke-linejoin:round;stroke-miterlimit:10;stroke-dasharray:none;stroke-opacity:1"
     id="path3627" /><path
     d="M 21.957549,37.640892 V 37.265903"
     style="fill:#000000;fill-opacity:1;fill-rule:nonzero;stroke:#000000;stroke-width:0.124996;stroke-linecap:butt;stroke-linejoin:round;stroke-miterlimit:10;stroke-dasharray:none;stroke-opacity:1"
     id="path3628" /><path
     d="m 26.290751,65.253695 v 0.374989"
     style="fill:#000000;fill-opacity:1;fill-rule:nonzero;stroke:#000000;stroke-width:0.124996;stroke-linecap:butt;stroke-linejoin:round;stroke-miterlimit:10;stroke-dasharray:none;stroke-opacity:1"
     id="path3629" /><path
     d="M 26.290751,37.640892 V 37.265903"
     style="fill:#000000;fill-opacity:1;fill-rule:nonzero;stroke:#000000;stroke-width:0.124996;stroke-linecap:butt;stroke-linejoin:round;stroke-miterlimit:10;stroke-dasharray:none;stroke-opacity:1"
     id="path3630" /><path
     d="m 34.957156,65.253695 v 0.374989"
     style="fill:#000000;fill-opacity:1;fill-rule:nonzero;stroke:#000000;stroke-width:0.124996;stroke-linecap:butt;stroke-linejoin:round;stroke-miterlimit:10;stroke-dasharray:none;stroke-opacity:1"
     id="path3631" /><path
     d="M 34.957156,37.640892 V 37.265903"
     style="fill:#000000;fill-opacity:1;fill-rule:nonzero;stroke:#000000;stroke-width:0.124996;stroke-linecap:butt;stroke-linejoin:round;stroke-miterlimit:10;stroke-dasharray:none;stroke-opacity:1"
     id="path3632" /><path
     d="m 39.290358,65.253695 v 0.374989"
     style="fill:#000000;fill-opacity:1;fill-rule:nonzero;stroke:#000000;stroke-width:0.124996;stroke-linecap:butt;stroke-linejoin:round;stroke-miterlimit:10;stroke-dasharray:none;stroke-opacity:1"
     id="path3633" /><path
     d="M 39.290358,37.640892 V 37.265903"
     style="fill:#000000;fill-opacity:1;fill-rule:nonzero;stroke:#000000;stroke-width:0.124996;stroke-linecap:butt;stroke-linejoin:round;stroke-miterlimit:10;stroke-dasharray:none;stroke-opacity:1"
     id="path3634" /><path
     d="m 43.62356,65.253695 v 0.374989"
     style="fill:#000000;fill-opacity:1;fill-rule:nonzero;stroke:#000000;stroke-width:0.124996;stroke-linecap:butt;stroke-linejoin:round;stroke-miterlimit:10;stroke-dasharray:none;stroke-opacity:1"
     id="path3635" /><path
     d="M 43.62356,37.640892 V 37.265903"
     style="fill:#000000;fill-opacity:1;fill-rule:nonzero;stroke:#000000;stroke-width:0.124996;stroke-linecap:butt;stroke-linejoin:round;stroke-miterlimit:10;stroke-dasharray:none;stroke-opacity:1"
     id="path3636" /><path
     d="m 47.956763,65.253695 v 0.374989"
     style="fill:#000000;fill-opacity:1;fill-rule:nonzero;stroke:#000000;stroke-width:0.124996;stroke-linecap:butt;stroke-linejoin:round;stroke-miterlimit:10;stroke-dasharray:none;stroke-opacity:1"
     id="path3637" /><path
     d="M 47.956763,37.640892 V 37.265903"
     style="fill:#000000;fill-opacity:1;fill-rule:nonzero;stroke:#000000;stroke-width:0.124996;stroke-linecap:butt;stroke-linejoin:round;stroke-miterlimit:10;stroke-dasharray:none;stroke-opacity:1"
     id="path3638" /><path
     d="m 56.623167,65.253695 v 0.374989"
     style="fill:#000000;fill-opacity:1;fill-rule:nonzero;stroke:#000000;stroke-width:0.124996;stroke-linecap:butt;stroke-linejoin:round;stroke-miterlimit:10;stroke-dasharray:none;stroke-opacity:1"
     id="path3639" /><path
     d="M 56.623167,37.640892 V 37.265903"
     style="fill:#000000;fill-opacity:1;fill-rule:nonzero;stroke:#000000;stroke-width:0.124996;stroke-linecap:butt;stroke-linejoin:round;stroke-miterlimit:10;stroke-dasharray:none;stroke-opacity:1"
     id="path3640" /><path
     d="m 60.95637,65.253695 v 0.374989"
     style="fill:#000000;fill-opacity:1;fill-rule:nonzero;stroke:#000000;stroke-width:0.124996;stroke-linecap:butt;stroke-linejoin:round;stroke-miterlimit:10;stroke-dasharray:none;stroke-opacity:1"
     id="path3641" /><path
     d="M 60.95637,37.640892 V 37.265903"
     style="fill:#000000;fill-opacity:1;fill-rule:nonzero;stroke:#000000;stroke-width:0.124996;stroke-linecap:butt;stroke-linejoin:round;stroke-miterlimit:10;stroke-dasharray:none;stroke-opacity:1"
     id="path3642" /><path
     d="m 65.289571,65.253695 v 0.374989"
     style="fill:#000000;fill-opacity:1;fill-rule:nonzero;stroke:#000000;stroke-width:0.124996;stroke-linecap:butt;stroke-linejoin:round;stroke-miterlimit:10;stroke-dasharray:none;stroke-opacity:1"
     id="path3643" /><path
     d="M 65.289571,37.640892 V 37.265903"
     style="fill:#000000;fill-opacity:1;fill-rule:nonzero;stroke:#000000;stroke-width:0.124996;stroke-linecap:butt;stroke-linejoin:round;stroke-miterlimit:10;stroke-dasharray:none;stroke-opacity:1"
     id="path3644" /><path
     d="m 69.622774,65.253695 v 0.374989"
     style="fill:#000000;fill-opacity:1;fill-rule:nonzero;stroke:#000000;stroke-width:0.124996;stroke-linecap:butt;stroke-linejoin:round;stroke-miterlimit:10;stroke-dasharray:none;stroke-opacity:1"
     id="path3645" /><path
     d="M 69.622774,37.640892 V 37.265903"
     style="fill:#000000;fill-opacity:1;fill-rule:nonzero;stroke:#000000;stroke-width:0.124996;stroke-linecap:butt;stroke-linejoin:round;stroke-miterlimit:10;stroke-dasharray:none;stroke-opacity:1"
     id="path3646" /><path
     d="m 78.289178,65.253695 v 0.374989"
     style="fill:#000000;fill-opacity:1;fill-rule:nonzero;stroke:#000000;stroke-width:0.124996;stroke-linecap:butt;stroke-linejoin:round;stroke-miterlimit:10;stroke-dasharray:none;stroke-opacity:1"
     id="path3647" /><path
     d="M 78.289178,37.640892 V 37.265903"
     style="fill:#000000;fill-opacity:1;fill-rule:nonzero;stroke:#000000;stroke-width:0.124996;stroke-linecap:butt;stroke-linejoin:round;stroke-miterlimit:10;stroke-dasharray:none;stroke-opacity:1"
     id="path3648" /><path
     d="m 82.622381,65.253695 v 0.374989"
     style="fill:#000000;fill-opacity:1;fill-rule:nonzero;stroke:#000000;stroke-width:0.124996;stroke-linecap:butt;stroke-linejoin:round;stroke-miterlimit:10;stroke-dasharray:none;stroke-opacity:1"
     id="path3649" /><path
     d="M 82.622381,37.640892 V 37.265903"
     style="fill:#000000;fill-opacity:1;fill-rule:nonzero;stroke:#000000;stroke-width:0.124996;stroke-linecap:butt;stroke-linejoin:round;stroke-miterlimit:10;stroke-dasharray:none;stroke-opacity:1"
     id="path3650" /><path
     d="M 12.424504,63.855579 H 11.674527"
     style="fill:#000000;fill-opacity:1;fill-rule:nonzero;stroke:#000000;stroke-width:0.124996;stroke-linecap:butt;stroke-linejoin:round;stroke-miterlimit:10;stroke-dasharray:none;stroke-opacity:1"
     id="path3652" /><path
     d="m 82.622381,63.855579 h 0.749977"
     style="fill:#000000;fill-opacity:1;fill-rule:nonzero;stroke:#000000;stroke-width:0.124996;stroke-linecap:butt;stroke-linejoin:round;stroke-miterlimit:10;stroke-dasharray:none;stroke-opacity:1"
     id="path3653" /><path
     d="M 12.424504,46.379121 H 11.674527"
     style="fill:#000000;fill-opacity:1;fill-rule:nonzero;stroke:#000000;stroke-width:0.124996;stroke-linecap:butt;stroke-linejoin:round;stroke-miterlimit:10;stroke-dasharray:none;stroke-opacity:1"
     id="path3655" /><path
     d="m 82.622381,46.379121 h 0.749977"
     style="fill:#000000;fill-opacity:1;fill-rule:nonzero;stroke:#000000;stroke-width:0.124996;stroke-linecap:butt;stroke-linejoin:round;stroke-miterlimit:10;stroke-dasharray:none;stroke-opacity:1"
     id="path3656" /><path
     d="M 12.424504,60.360287 H 12.049515"
     style="fill:#000000;fill-opacity:1;fill-rule:nonzero;stroke:#000000;stroke-width:0.124996;stroke-linecap:butt;stroke-linejoin:round;stroke-miterlimit:10;stroke-dasharray:none;stroke-opacity:1"
     id="path3658" /><path
     d="M 82.622381,60.360287 H 82.99737"
     style="fill:#000000;fill-opacity:1;fill-rule:nonzero;stroke:#000000;stroke-width:0.124996;stroke-linecap:butt;stroke-linejoin:round;stroke-miterlimit:10;stroke-dasharray:none;stroke-opacity:1"
     id="path3659" /><path
     d="M 12.424504,56.864996 H 12.049515"
     style="fill:#000000;fill-opacity:1;fill-rule:nonzero;stroke:#000000;stroke-width:0.124996;stroke-linecap:butt;stroke-linejoin:round;stroke-miterlimit:10;stroke-dasharray:none;stroke-opacity:1"
     id="path3660" /><path
     d="M 82.622381,56.864996 H 82.99737"
     style="fill:#000000;fill-opacity:1;fill-rule:nonzero;stroke:#000000;stroke-width:0.124996;stroke-linecap:butt;stroke-linejoin:round;stroke-miterlimit:10;stroke-dasharray:none;stroke-opacity:1"
     id="path3661" /><path
     d="M 12.424504,53.369704 H 12.049515"
     style="fill:#000000;fill-opacity:1;fill-rule:nonzero;stroke:#000000;stroke-width:0.124996;stroke-linecap:butt;stroke-linejoin:round;stroke-miterlimit:10;stroke-dasharray:none;stroke-opacity:1"
     id="path3662" /><path
     d="M 82.622381,53.369704 H 82.99737"
     style="fill:#000000;fill-opacity:1;fill-rule:nonzero;stroke:#000000;stroke-width:0.124996;stroke-linecap:butt;stroke-linejoin:round;stroke-miterlimit:10;stroke-dasharray:none;stroke-opacity:1"
     id="path3663" /><path
     d="M 12.424504,49.874413 H 12.049515"
     style="fill:#000000;fill-opacity:1;fill-rule:nonzero;stroke:#000000;stroke-width:0.124996;stroke-linecap:butt;stroke-linejoin:round;stroke-miterlimit:10;stroke-dasharray:none;stroke-opacity:1"
     id="path3664" /><path
     d="M 82.622381,49.874413 H 82.99737"
     style="fill:#000000;fill-opacity:1;fill-rule:nonzero;stroke:#000000;stroke-width:0.124996;stroke-linecap:butt;stroke-linejoin:round;stroke-miterlimit:10;stroke-dasharray:none;stroke-opacity:1"
     id="path3665" /><path
     d="M 12.424504,42.883829 H 12.049515"
     style="fill:#000000;fill-opacity:1;fill-rule:nonzero;stroke:#000000;stroke-width:0.124996;stroke-linecap:butt;stroke-linejoin:round;stroke-miterlimit:10;stroke-dasharray:none;stroke-opacity:1"
     id="path3666" /><path
     d="M 82.622381,42.883829 H 82.99737"
     style="fill:#000000;fill-opacity:1;fill-rule:nonzero;stroke:#000000;stroke-width:0.124996;stroke-linecap:butt;stroke-linejoin:round;stroke-miterlimit:10;stroke-dasharray:none;stroke-opacity:1"
     id="path3667" /><path
     d="M 12.424504,39.388538 H 12.049515"
     style="fill:#000000;fill-opacity:1;fill-rule:nonzero;stroke:#000000;stroke-width:0.124996;stroke-linecap:butt;stroke-linejoin:round;stroke-miterlimit:10;stroke-dasharray:none;stroke-opacity:1"
     id="path3668" /><path
     d="M 82.622381,39.388538 H 82.99737"
     style="fill:#000000;fill-opacity:1;fill-rule:nonzero;stroke:#000000;stroke-width:0.124996;stroke-linecap:butt;stroke-linejoin:round;stroke-miterlimit:10;stroke-dasharray:none;stroke-opacity:1"
     id="path3669" /><g
     clip-path="url(#clipPath1)"
     id="g3672"
     transform="matrix(0.26458333,0,0,0.26458335,-1523.0135,-29.344059)"><path
       d="m 122.27327,109.10339 7.84999,-0.33209 11.09237,-0.22556 11.26304,-0.0948 0.17065,176.2258 1.19456,-27.32664 1.19457,-21.89418 1.19456,-17.77788 1.19456,-14.6146 1.19457,-12.14862 1.36521,-11.5216 1.36522,-9.5426 1.36521,-7.98306 1.36522,-6.73704 1.36522,-5.72922 1.53586,-5.46771 1.53587,-4.62517 1.53587,-3.93784 1.53587,-3.37155 1.70652,-3.19768 1.70652,-2.72 1.70652,-2.32425 1.87717,-2.1773 1.87717,-1.84704 2.04782,-1.70346 2.21848,-1.54295 2.38913,-1.37483 2.55978,-1.2059 2.73043,-1.04204 3.07173,-0.93374 3.41304,-0.80706 3.925,-0.70088 4.6076,-0.59556 5.63152,-0.49577 6.99673,-0.38503 9.38586,-0.28251 4.94891,-0.086 0.17065,151.14883 1.19456,-23.74085 1.19457,-18.97758 1.19456,-15.3835 1.19456,-12.62914 1.19457,-10.48586 1.36521,-9.93308 1.36522,-8.21676 1.36521,-6.8651 1.36522,-5.78573 1.36522,-4.91308 1.53586,-4.68106 1.53587,-3.95222 1.53587,-3.358 1.53587,-2.86877 1.70652,-2.71407 1.70652,-2.30218 1.87717,-2.14104 1.87717,-1.80324 2.04783,-1.65111 2.21847,-1.4847 2.38913,-1.31236 2.55978,-1.14191 2.73043,-0.97844 3.07173,-0.86884 3.5837,-0.77558 4.09564,-0.65301 4.94891,-0.55287 5.97282,-0.43584 7.84999,-0.33611 10.92173,-0.22848 10.58042,-0.0957 0.17065,179.97466 1.19457,-27.92422 1.19456,-22.36863 1.19456,-18.15899 1.19457,-14.92452 1.19456,-12.40364 1.36522,-11.76116 1.36521,-9.73936 1.36522,-8.14658 1.36522,-6.8744 1.36521,-5.84568 1.53587,-5.57871 1.53587,-4.71912 1.53587,-4.01798 1.53586,-3.44045 1.70652,-3.26338 1.70652,-2.77629 1.70652,-2.37278 1.87717,-2.22325 1.87718,-1.8865 2.04782,-1.74038 2.21848,-1.57695 2.38912,-1.4057 2.55978,-1.23358 2.73043,-1.06653 3.07174,-0.95629 3.41304,-0.82717 3.925,-0.71897 4.6076,-0.61158 5.63151,-0.50979 6.99674,-0.39657 9.38586,-0.29164 4.6076,-0.0838 0.17065,157.51875 1.19456,-24.72832 1.19457,-19.76576 1.19456,-16.02018 1.19457,-13.1498 1.19456,-10.91665 1.36522,-10.34 1.36521,-8.55281 1.36522,-7.14582 1.36521,-6.02261 1.36522,-5.11479 1.53587,-4.87407 1.53586,-4.11619 1.53587,-3.49838 1.53587,-2.98977 1.70652,-2.8298 1.70652,-2.40158 1.87717,-2.23484 1.87717,-1.88355 2.04783,-1.726 2.04782,-1.4442 2.21848,-1.30404 2.38912,-1.15778 2.73044,-1.07152 3.07173,-0.95243 3.41304,-0.81608 3.925,-0.70203 4.6076,-0.59014 5.63152,-0.48513 7.16738,-0.37784 9.55651,-0.26676 14.50542,-0.16485 0.17065,177.42387 1.19456,-27.51989 1.19457,-22.04756 1.19456,-17.90106 1.19457,-14.71482 1.19456,-12.23112 1.36521,-11.59914 1.36522,-9.60633 1.36522,-8.03604 1.36521,-6.78155 1.36522,-5.76696 1.53587,-5.50367 1.53586,-4.65559 1.53587,-3.96376 1.53587,-3.39382 1.70652,-3.21888 1.70652,-2.73813 1.70652,-2.33986 1.87717,-2.19204 1.87717,-1.85966 2.04783,-1.71524 2.21847,-1.55376 2.38913,-1.3846 2.55978,-1.21464 2.73043,-1.04972 3.07174,-0.94078 3.41304,-0.8133 3.92499,-0.70646 4.60761,-0.60046 5.63151,-0.50003 6.99673,-0.38849 9.38586,-0.28522 4.43695,-0.0793 0.17066,157.1871 1.19456,-24.54686 1.19456,-19.64617 1.19457,-15.94177 1.19456,-13.09899 1.19456,-10.88448 1.36522,-10.31853 1.36522,-8.54213 1.36521,-7.14215 1.36522,-6.02352 1.36521,-5.11862 1.53587,-4.88056 1.53587,-4.12399 1.53587,-3.50684 1.53586,-2.99846 1.70652,-2.83938 1.70652,-2.41087 1.87718,-2.24457 1.87717,-1.89266 2.04782,-1.7352 2.04783,-1.45262 2.21847,-1.31229 2.38913,-1.16573 2.73043,-1.07953 3.07174,-0.96017 3.41304,-0.82334 3.92499,-0.70886 4.6076,-0.59645 5.63152,-0.49091 6.99673,-0.37602 9.55651,-0.27444 14.50542,-0.17005 0.3413,-0.002 0.17066,169.29397 1.19456,-26.24479 1.19456,-21.03229 1.19457,-17.08326 1.19456,-14.04812 1.19457,-11.68124 1.36521,-11.08138 1.36522,-9.18014 1.36521,-7.68109 1.36522,-6.48283 1.36521,-5.51321 1.53587,-5.26139 1.53587,-4.45019 1.53587,-3.78821 0.51195,-1.13654 v 0"
       style="fill:none;stroke:#ff7f0e;stroke-width:1;stroke-linecap:square;stroke-linejoin:round;stroke-miterlimit:10;stroke-dasharray:none;stroke-opacity:1"
       transform="matrix(0.47242667,0,0,-0.47242667,5745.4053,403.45467)"
       clip-path="url(#clipPath3126)"
       id="path3672" /></g><path
     d="M 12.424504,65.253695 V 37.640892"
     style="fill:none;stroke:#000000;stroke-width:0.099997;stroke-linecap:square;stroke-linejoin:miter;stroke-miterlimit:10;stroke-dasharray:none;stroke-opacity:1"
     id="path3673" /><path
     d="M 82.622381,65.253695 V 37.640892"
     style="fill:none;stroke:#000000;stroke-width:0.099997;stroke-linecap:square;stroke-linejoin:miter;stroke-miterlimit:10;stroke-dasharray:none;stroke-opacity:1"
     id="path3674" /><path
     d="M 12.424504,65.253695 H 82.622381"
     style="fill:none;stroke:#000000;stroke-width:0.099997;stroke-linecap:square;stroke-linejoin:miter;stroke-miterlimit:10;stroke-dasharray:none;stroke-opacity:1"
     id="path3675" /><path
     d="M 12.424504,37.640892 H 82.622381"
     style="fill:none;stroke:#000000;stroke-width:0.099997;stroke-linecap:square;stroke-linejoin:miter;stroke-miterlimit:10;stroke-dasharray:none;stroke-opacity:1"
     id="path3676" /></svg>
